<svg width="335" height="118" viewBox="0 0 335 118" fill="none" xmlns="http://www.w3.org/2000/svg">
<g clip-path="url(#clip0_50_16)">
<path d="M90.3934 69.7185V78.3835H61.8682V29.4609H71.313V69.7185H90.3934Z" fill="white"/>
<path d="M124.499 69.7185V78.3835H95.9736V29.4609H105.418V69.7185H124.499Z" fill="white"/>
<path d="M161.012 62.1973H153.716V78.4009H144.271V29.4609H161.428C171.826 29.4609 178.758 36.081 178.758 46.0804C178.758 53.0991 175.396 58.2114 169.729 60.6203L181.167 78.4009H171.116L161.012 62.1973ZM153.716 54.0002H160.475C165.674 54.0002 169.14 51.7993 169.14 46.0804C169.14 40.3615 165.674 38.1433 160.475 38.1433H153.716V54.0002Z" fill="white"/>
<path d="M186.038 29.4609H195.466V78.4009H186.038V29.4609Z" fill="white"/>
<path d="M226.816 79.077C223.494 79.1632 220.188 78.5711 217.102 77.337C214.017 76.1029 211.215 74.2527 208.868 71.8993C206.521 69.546 204.678 66.7389 203.453 63.6495C202.227 60.5601 201.644 57.2534 201.74 53.9312C201.74 38.6981 213.316 28.7853 227.093 28.7853C231.029 28.6713 234.925 29.5906 238.394 31.4515C241.864 33.3123 244.785 36.0499 246.867 39.3913L240.056 44.1397C238.618 42.0924 236.692 40.4357 234.453 39.3192C232.214 38.2027 229.733 37.6617 227.232 37.7449C218.48 37.7449 211.392 43.8798 211.392 53.9312C211.392 63.9826 218.324 70.3947 227.232 70.3947C233.228 70.3947 238.67 67.5699 240.126 59.9967H228.41V52.0769H249.206C251.494 69.0256 240.333 79.077 226.816 79.077Z" fill="white"/>
<path d="M294.819 29.4609V78.4009H285.391V58.3501H265.271V78.4009H255.826V29.4609H265.271V49.6677H285.391V29.4609H294.819Z" fill="white"/>
<path d="M334.088 38.1259H322.338V78.4009H312.91V38.1259H301.126V29.4609H334.053L334.088 38.1259Z" fill="white"/>
<path d="M52.3203 100.774H54.4866V114.378H52.3203V100.774Z" fill="white"/>
<path d="M66.0804 108.502V114.377H63.9488V108.849C63.9488 107.116 62.9957 106.128 61.5226 106.128C61.1739 106.118 60.8271 106.183 60.5061 106.32C60.1851 106.457 59.8977 106.661 59.6637 106.92C59.4297 107.179 59.2546 107.485 59.1507 107.818C59.0468 108.151 59.0164 108.503 59.0618 108.849V114.377H56.9648V104.413H59.0618V105.903C59.3825 105.345 59.8524 104.887 60.4186 104.581C60.9849 104.275 61.6252 104.133 62.2678 104.17C62.8189 104.153 63.367 104.258 63.8729 104.477C64.3788 104.696 64.83 105.025 65.1942 105.438C65.5585 105.852 65.8268 106.342 65.98 106.871C66.1332 107.401 66.1675 107.958 66.0804 108.502Z" fill="white"/>
<path d="M67.5859 104.413H69.6655L72.7849 111.813L75.783 104.413H77.9666L73.6688 114.378H71.6931L67.5859 104.413Z" fill="white"/>
<path d="M88.3837 110.184H80.6372C80.7729 110.963 81.1947 111.663 81.8198 112.147C82.445 112.631 83.2284 112.865 84.0165 112.801C85.0356 112.828 86.0248 112.455 86.772 111.761L87.7771 112.801C87.2772 113.36 86.662 113.805 85.974 114.104C85.2859 114.403 84.5413 114.55 83.7912 114.534C82.4124 114.555 81.0818 114.027 80.0922 113.066C79.1025 112.106 78.5349 110.792 78.5143 109.413C78.4936 108.034 79.0215 106.703 79.9819 105.714C80.9422 104.724 82.2564 104.157 83.6353 104.136C84.3782 104.129 85.1128 104.293 85.7824 104.614C86.4521 104.936 87.0389 105.407 87.4977 105.992C87.9564 106.576 88.2749 107.258 88.4285 107.985C88.5821 108.712 88.5668 109.464 88.3837 110.184ZM80.5505 108.624H86.6507C86.6331 108.262 86.5434 107.906 86.387 107.578C86.2305 107.25 86.0104 106.957 85.7394 106.715C85.4685 106.473 85.1521 106.287 84.8087 106.169C84.4653 106.05 84.1017 106.002 83.7393 106.025C82.9861 105.98 82.244 106.223 81.6644 106.706C81.0847 107.189 80.7112 107.875 80.6199 108.624H80.5505Z" fill="white"/>
<path d="M89.6484 111.813L91.3814 111.345C91.4705 111.778 91.7082 112.166 92.0532 112.441C92.3983 112.716 92.829 112.862 93.2704 112.853C94.0503 112.853 94.8128 112.455 94.8128 111.571C94.8128 110.687 94.3969 110.548 93.4437 110.167L92.3692 109.768C91.7271 109.618 91.1513 109.263 90.7291 108.757C90.3069 108.25 90.0614 107.62 90.0297 106.961C90.0528 106.562 90.1575 106.171 90.3373 105.814C90.5171 105.457 90.7682 105.14 91.0751 104.883C91.382 104.627 91.7382 104.436 92.1217 104.322C92.5052 104.209 92.908 104.175 93.3051 104.223C94.0473 104.172 94.7837 104.384 95.3856 104.821C95.9875 105.258 96.4166 105.893 96.5978 106.614L94.8648 107.048C94.7721 106.712 94.5699 106.417 94.2905 106.21C94.011 106.003 93.6702 105.895 93.3224 105.904C92.5599 105.904 92.0226 106.32 92.0226 106.978C92.0226 107.637 92.3519 107.931 93.2531 108.261L94.2236 108.642C95.61 109.162 96.8577 109.872 96.8577 111.571C96.8577 113.564 95.1247 114.552 93.2184 114.552C92.3886 114.625 91.5615 114.384 90.9005 113.877C90.2395 113.37 89.7927 112.634 89.6484 111.813Z" fill="white"/>
<path d="M101.746 106.111V111.57C101.746 112.142 102.058 112.575 102.838 112.575C103.152 112.573 103.463 112.514 103.756 112.402V114.135C103.295 114.422 102.756 114.561 102.214 114.533C101.867 114.58 101.515 114.547 101.183 114.438C100.851 114.328 100.549 114.145 100.298 113.901C100.048 113.657 99.8561 113.36 99.7376 113.031C99.6191 112.702 99.5769 112.351 99.6142 112.003V106.111H98.2451V104.378H99.6142V101.865H101.746V104.413H103.756V106.146L101.746 106.111Z" fill="white"/>
<path d="M120.895 108.537V114.377H118.763V108.658C118.763 107.047 117.984 106.128 116.649 106.128C115.315 106.128 114.379 107.047 114.379 108.658V114.377H112.317V108.658C112.317 107.047 111.519 106.128 110.202 106.128C108.885 106.128 107.967 107.047 107.967 108.658V114.377H105.853V104.413H107.967V105.816C108.267 105.309 108.7 104.892 109.219 104.611C109.738 104.331 110.323 104.196 110.913 104.222C111.532 104.187 112.148 104.332 112.686 104.639C113.224 104.947 113.662 105.404 113.946 105.955C114.285 105.386 114.776 104.922 115.363 104.616C115.951 104.31 116.612 104.174 117.273 104.222C119.353 104.222 120.895 105.539 120.895 108.537Z" fill="white"/>
<path d="M132.678 110.184H124.862C124.998 110.979 125.433 111.693 126.077 112.179C126.721 112.665 127.526 112.888 128.328 112.801C129.347 112.826 130.335 112.453 131.083 111.761L132.071 112.801C131.576 113.367 130.962 113.816 130.273 114.115C129.584 114.415 128.836 114.558 128.085 114.534C127.402 114.544 126.724 114.42 126.09 114.168C125.455 113.916 124.876 113.542 124.386 113.066C123.396 112.106 122.829 110.792 122.808 109.413C122.788 108.034 123.315 106.703 124.276 105.714C125.236 104.724 126.55 104.157 127.929 104.136C128.672 104.129 129.407 104.293 130.076 104.614C130.746 104.936 131.333 105.407 131.792 105.992C132.25 106.576 132.569 107.258 132.722 107.985C132.876 108.712 132.861 109.464 132.678 110.184ZM124.775 108.624H130.719C130.702 108.263 130.613 107.909 130.457 107.582C130.302 107.256 130.083 106.963 129.814 106.721C129.545 106.48 129.231 106.294 128.889 106.174C128.548 106.055 128.186 106.004 127.825 106.025C127.085 106.002 126.362 106.255 125.798 106.736C125.234 107.216 124.87 107.89 124.775 108.624Z" fill="white"/>
<path d="M143.839 108.502V114.377H141.725V108.849C141.725 107.116 140.772 106.128 139.299 106.128C138.956 106.128 138.617 106.201 138.304 106.342C137.992 106.483 137.713 106.689 137.487 106.947C137.26 107.204 137.092 107.507 136.992 107.835C136.892 108.163 136.863 108.509 136.907 108.849V114.377H134.741V104.413H136.907V105.903C137.228 105.345 137.698 104.887 138.264 104.581C138.831 104.275 139.471 104.133 140.114 104.17C140.657 104.166 141.196 104.28 141.691 104.505C142.186 104.73 142.626 105.06 142.981 105.472C143.336 105.885 143.596 106.369 143.744 106.893C143.893 107.416 143.925 107.965 143.839 108.502Z" fill="white"/>
<path d="M149.038 106.111V111.57C149.038 112.142 149.35 112.575 150.13 112.575C150.444 112.573 150.755 112.514 151.049 112.402V114.135C150.588 114.424 150.049 114.563 149.506 114.533C149.159 114.573 148.807 114.533 148.478 114.417C148.148 114.301 147.85 114.111 147.604 113.862C147.359 113.613 147.173 113.312 147.061 112.981C146.949 112.65 146.914 112.298 146.959 111.951V106.111H145.572V104.378H146.959V101.865H149.038V104.413H151.049V106.146L149.038 106.111Z" fill="white"/>
<path d="M169.124 112.402V114.135C168.77 114.416 168.327 114.557 167.876 114.534C167.613 114.546 167.35 114.5 167.106 114.401C166.862 114.301 166.643 114.149 166.463 113.956C166.284 113.764 166.148 113.534 166.066 113.284C165.984 113.033 165.957 112.768 165.987 112.506V112.246C165.643 112.999 165.076 113.628 164.364 114.05C163.651 114.471 162.827 114.664 162.001 114.603C161.402 114.639 160.802 114.551 160.239 114.343C159.675 114.135 159.162 113.812 158.73 113.395C158.298 112.977 157.958 112.475 157.73 111.919C157.503 111.364 157.393 110.767 157.409 110.167C157.347 109.155 157.67 108.157 158.312 107.373C158.955 106.589 159.87 106.076 160.875 105.938L158.397 100.739H165.745V102.472H160.944L163.128 107.169H162.556C162.175 107.127 161.79 107.166 161.426 107.285C161.062 107.403 160.728 107.597 160.444 107.854C160.161 108.111 159.935 108.426 159.782 108.777C159.63 109.127 159.553 109.507 159.558 109.889C159.545 110.261 159.61 110.63 159.748 110.975C159.887 111.32 160.096 111.632 160.361 111.891C160.627 112.151 160.944 112.352 161.292 112.481C161.641 112.611 162.012 112.667 162.383 112.645C162.792 112.66 163.199 112.59 163.58 112.438C163.96 112.287 164.305 112.058 164.592 111.766C164.878 111.475 165.101 111.126 165.246 110.743C165.391 110.36 165.455 109.952 165.433 109.543V106.077H168.899V107.81H167.46V111.519C167.445 111.648 167.458 111.78 167.499 111.904C167.54 112.028 167.607 112.142 167.696 112.237C167.785 112.333 167.894 112.408 168.014 112.458C168.135 112.507 168.266 112.53 168.396 112.524C168.645 112.536 168.893 112.495 169.124 112.402Z" fill="white"/>
<path d="M175.606 100.774H180.112C181.914 100.774 183.642 101.49 184.916 102.764C186.19 104.038 186.906 105.766 186.906 107.567C186.906 109.369 186.19 111.097 184.916 112.371C183.642 113.645 181.914 114.361 180.112 114.361H175.606V100.774ZM180.043 112.316C181.232 112.214 182.34 111.67 183.147 110.79C183.955 109.911 184.403 108.761 184.403 107.567C184.403 106.374 183.955 105.223 183.147 104.344C182.34 103.465 181.232 102.921 180.043 102.819H177.773V112.316H180.043Z" fill="white"/>
<path d="M198.151 110.184H190.335C190.472 110.979 190.906 111.693 191.55 112.179C192.194 112.665 192.999 112.888 193.801 112.801C194.821 112.828 195.81 112.455 196.557 111.761L197.545 112.801C197.05 113.367 196.436 113.816 195.747 114.116C195.057 114.415 194.31 114.558 193.559 114.534C192.18 114.552 190.85 114.022 189.862 113.06C188.874 112.098 188.309 110.783 188.291 109.404C188.272 108.025 188.802 106.696 189.764 105.708C190.726 104.72 192.041 104.154 193.42 104.136C194.163 104.128 194.897 104.292 195.566 104.613C196.236 104.935 196.822 105.407 197.279 105.992C197.737 106.577 198.053 107.259 198.205 107.986C198.356 108.713 198.338 109.465 198.151 110.184ZM190.318 108.624H196.28C196.235 107.895 195.904 107.213 195.359 106.726C194.814 106.239 194.098 105.987 193.368 106.025C192.628 106.002 191.905 106.255 191.341 106.736C190.777 107.216 190.413 107.89 190.318 108.624Z" fill="white"/>
<path d="M198.966 104.413H201.132L204.165 111.813L207.163 104.413H209.347L205.135 114.378H203.16L198.966 104.413Z" fill="white"/>
<path d="M219.917 110.184H212.101C212.238 110.979 212.672 111.693 213.316 112.179C213.96 112.665 214.765 112.887 215.567 112.801C216.586 112.828 217.576 112.455 218.323 111.761L219.328 112.801C218.828 113.36 218.213 113.805 217.525 114.104C216.837 114.403 216.092 114.55 215.342 114.534C214.659 114.544 213.981 114.42 213.347 114.168C212.712 113.916 212.133 113.542 211.643 113.066C210.653 112.106 210.086 110.792 210.065 109.413C210.044 108.034 210.572 106.703 211.533 105.714C212.493 104.724 213.807 104.157 215.186 104.136C215.927 104.131 216.66 104.297 217.328 104.62C217.995 104.943 218.58 105.414 219.036 105.998C219.493 106.582 219.81 107.263 219.963 107.989C220.116 108.715 220.1 109.465 219.917 110.184ZM212.084 108.624H218.028C218.011 108.261 217.921 107.906 217.764 107.578C217.608 107.25 217.388 106.957 217.117 106.715C216.846 106.473 216.53 106.287 216.186 106.169C215.843 106.05 215.479 106.001 215.117 106.025C214.378 106.002 213.658 106.256 213.097 106.737C212.536 107.218 212.174 107.891 212.084 108.624Z" fill="white"/>
<path d="M221.98 100.774H224.077V114.378H221.98V100.774Z" fill="white"/>
<path d="M226.087 109.387C226.087 108.359 226.392 107.354 226.964 106.499C227.535 105.644 228.347 104.978 229.297 104.584C230.247 104.191 231.292 104.088 232.301 104.288C233.309 104.489 234.236 104.984 234.963 105.711C235.69 106.438 236.185 107.365 236.386 108.373C236.586 109.382 236.483 110.427 236.09 111.377C235.696 112.327 235.03 113.139 234.175 113.71C233.32 114.282 232.315 114.586 231.286 114.586C230.598 114.608 229.912 114.488 229.272 114.235C228.631 113.981 228.049 113.599 227.562 113.112C227.075 112.625 226.693 112.043 226.439 111.402C226.185 110.762 226.066 110.076 226.087 109.387ZM234.406 109.387C234.379 108.776 234.172 108.187 233.813 107.692C233.453 107.197 232.956 106.819 232.383 106.605C231.81 106.39 231.187 106.349 230.591 106.486C229.995 106.623 229.452 106.932 229.03 107.375C228.609 107.818 228.326 108.375 228.219 108.977C228.111 109.58 228.183 110.2 228.425 110.762C228.668 111.323 229.07 111.801 229.581 112.136C230.093 112.471 230.692 112.648 231.304 112.646C231.725 112.649 232.143 112.565 232.531 112.4C232.919 112.236 233.269 111.993 233.56 111.688C233.851 111.383 234.076 111.021 234.221 110.625C234.367 110.23 234.43 109.808 234.406 109.387Z" fill="white"/>
<path d="M248.754 109.387C248.805 110.052 248.717 110.72 248.496 111.349C248.276 111.979 247.928 112.556 247.474 113.044C247.02 113.532 246.469 113.921 245.858 114.187C245.246 114.452 244.586 114.588 243.919 114.586C243.239 114.635 242.558 114.5 241.949 114.195C241.339 113.89 240.822 113.427 240.453 112.853V118.052H238.356V104.414H240.453V105.991C240.825 105.42 241.342 104.958 241.951 104.653C242.56 104.349 243.24 104.212 243.919 104.258C244.58 104.256 245.234 104.39 245.84 104.652C246.447 104.913 246.994 105.296 247.447 105.776C247.9 106.257 248.25 106.825 248.475 107.446C248.699 108.067 248.795 108.728 248.754 109.387ZM246.658 109.387C246.637 108.768 246.434 108.168 246.075 107.662C245.715 107.157 245.215 106.769 244.636 106.547C244.057 106.325 243.426 106.278 242.821 106.412C242.215 106.547 241.663 106.857 241.233 107.304C240.803 107.75 240.514 108.314 240.403 108.924C240.291 109.534 240.362 110.163 240.606 110.733C240.85 111.303 241.257 111.788 241.775 112.128C242.294 112.469 242.901 112.648 243.521 112.645C243.946 112.656 244.369 112.578 244.762 112.416C245.155 112.254 245.511 112.013 245.806 111.706C246.101 111.4 246.329 111.036 246.475 110.636C246.622 110.237 246.684 109.812 246.658 109.387Z" fill="white"/>
<path d="M265.79 108.538V114.378H263.658V108.659C263.658 107.047 262.878 106.129 261.561 106.129C260.244 106.129 259.343 107.047 259.343 108.659V114.378H257.211V108.659C257.211 107.047 256.432 106.129 255.097 106.129C253.763 106.129 252.862 107.047 252.862 108.659V114.378H250.765V104.413H252.862V105.817C253.162 105.309 253.595 104.893 254.114 104.612C254.633 104.331 255.218 104.197 255.808 104.222C256.427 104.187 257.043 104.332 257.581 104.64C258.119 104.947 258.557 105.404 258.84 105.955C259.183 105.389 259.674 104.928 260.261 104.622C260.848 104.316 261.508 104.178 262.168 104.222C264.247 104.222 265.79 105.54 265.79 108.538Z" fill="white"/>
<path d="M277.574 110.184H269.759C269.899 110.978 270.334 111.688 270.977 112.174C271.62 112.659 272.423 112.883 273.225 112.801C274.244 112.828 275.233 112.455 275.98 111.761L276.968 112.801C276.477 113.366 275.865 113.815 275.179 114.115C274.493 114.415 273.748 114.558 272.999 114.534C272.317 114.544 271.638 114.42 271.004 114.168C270.369 113.916 269.79 113.542 269.3 113.066C268.311 112.106 267.743 110.792 267.722 109.413C267.702 108.034 268.23 106.704 269.19 105.714C270.15 104.724 271.464 104.157 272.843 104.136C273.586 104.128 274.32 104.292 274.989 104.613C275.659 104.935 276.245 105.407 276.702 105.992C277.16 106.577 277.477 107.259 277.628 107.986C277.779 108.713 277.761 109.465 277.574 110.184ZM269.741 108.624H275.703C275.683 108.262 275.592 107.908 275.434 107.581C275.277 107.254 275.057 106.962 274.787 106.72C274.516 106.479 274.201 106.293 273.858 106.174C273.516 106.054 273.153 106.004 272.791 106.025C272.051 106.002 271.328 106.255 270.764 106.736C270.2 107.216 269.836 107.89 269.741 108.624Z" fill="white"/>
<path d="M288.752 108.503V114.378H286.621V108.85C286.621 107.117 285.668 106.129 284.195 106.129C283.847 106.121 283.502 106.188 283.184 106.326C282.865 106.464 282.579 106.669 282.347 106.927C282.115 107.186 281.942 107.491 281.839 107.823C281.736 108.155 281.706 108.505 281.751 108.85V114.378H279.637V104.413H281.751V105.903C282.07 105.348 282.537 104.892 283.1 104.586C283.663 104.28 284.3 104.136 284.94 104.17C285.491 104.153 286.039 104.258 286.545 104.477C287.051 104.697 287.502 105.025 287.866 105.439C288.23 105.853 288.499 106.342 288.652 106.872C288.805 107.402 288.839 107.958 288.752 108.503Z" fill="white"/>
<path d="M293.969 106.111V111.57C293.969 112.142 294.281 112.575 295.061 112.575C295.375 112.575 295.687 112.516 295.98 112.402V114.135C295.519 114.424 294.98 114.563 294.437 114.533C294.092 114.577 293.742 114.542 293.412 114.432C293.083 114.321 292.782 114.137 292.534 113.893C292.286 113.65 292.095 113.353 291.978 113.026C291.86 112.699 291.818 112.349 291.855 112.003V106.111H290.469V104.378H291.855V101.865H293.969V104.413H295.98V106.146L293.969 106.111Z" fill="white"/>
<path d="M55.5776 78.401H46.9646V55.3001L37.5371 45.8553L43.6199 39.7725L55.5776 51.7302V78.401Z" fill="white"/>
<path d="M13.1015 57.9514L0 44.8499L6.08283 38.7497L12.7549 45.4218L42.3545 14.2104L48.7666 19.9467L13.1015 57.9514Z" fill="white"/>
<path d="M13.1015 68.4711L8.66502 64.0347H8.5957V78.4012H17.2087V64.0347H17.0701L13.1015 68.4711Z" fill="white"/>
<path d="M30.6053 56.3916H25.8223V61.1747H30.6053V56.3916Z" fill="white"/>
<path d="M30.6053 64.0347H25.8223V68.8177H30.6053V64.0347Z" fill="white"/>
<path d="M38.2655 56.3916H33.4824V61.1747H38.2655V56.3916Z" fill="white"/>
<path d="M38.2655 64.0347H33.4824V68.8177H38.2655V64.0347Z" fill="white"/>
<path d="M201.86 24.5046L190.891 13.5347L180.406 24.0194L173.63 17.2607L190.891 0L208.636 17.7459L201.86 24.5046Z" fill="white"/>
</g>
<defs>
<clipPath id="clip0_50_16">
<rect width="334.088" height="118" fill="white"/>
</clipPath>
</defs>
</svg>
